<?xml version="1.0" standalone="no"?>
<!DOCTYPE svg PUBLIC "-//W3C//DTD SVG 20010904//EN"
 "http://www.w3.org/TR/2001/REC-SVG-20010904/DTD/svg10.dtd">
<svg version="1.0" xmlns="http://www.w3.org/2000/svg"
 width="4982.000000pt" height="1744.000000pt" viewBox="0 0 4982.000000 1744.000000"
 preserveAspectRatio="xMidYMid meet">

<g transform="translate(0.000000,1744.000000) scale(0.100000,-0.100000)"
fill="#000000" stroke="none">
<path d="M13141 8727 c-1580 -4786 -2876 -8708 -2878 -8714 -4 -10 294 -13
1466 -13 l1470 0 159 482 c88 266 1382 4184 2876 8708 1494 4524 2716 8229
2716 8233 0 4 -660 7 -1467 7 l-1468 0 -2874 -8703z"/>
<path d="M20073 14736 c3 -7 14 -42 25 -77 11 -35 52 -165 90 -289 39 -124
124 -398 190 -610 66 -212 157 -502 202 -645 45 -143 110 -352 145 -465 35
-113 112 -358 170 -545 59 -187 115 -367 125 -400 10 -33 43 -139 73 -235 62
-198 98 -311 297 -950 78 -250 166 -531 195 -625 63 -205 365 -1172 440 -1410
102 -326 154 -491 199 -635 60 -196 235 -755 301 -965 95 -302 247 -788 265
-850 10 -33 43 -141 75 -240 31 -99 76 -243 100 -320 69 -223 289 -927 376
-1205 45 -140 98 -311 119 -380 35 -116 211 -679 335 -1075 67 -211 133 -423
181 -580 58 -187 130 -293 245 -359 99 -57 75 -56 1426 -56 875 0 1258 3 1295
11 115 24 231 104 284 195 21 36 64 159 91 259 3 11 21 72 40 135 48 158 119
398 149 500 14 47 40 135 59 195 47 152 215 713 225 750 11 41 54 186 96 325
20 63 48 158 64 210 125 416 153 509 160 535 4 17 35 122 69 235 79 259 106
349 176 585 31 105 67 224 80 265 13 41 47 154 75 250 62 212 93 315 131 440
16 52 54 178 84 280 31 102 65 214 76 250 10 36 24 81 29 100 5 19 27 94 49
165 22 72 58 191 80 265 21 74 67 227 101 340 34 113 100 333 146 490 47 157
106 353 130 435 60 199 93 308 150 500 26 88 51 164 55 169 7 8 33 -67 134
-389 29 -93 101 -323 160 -510 139 -444 202 -645 280 -895 80 -261 250 -804
320 -1025 95 -302 247 -788 265 -850 10 -33 43 -141 75 -240 31 -99 76 -243
100 -320 69 -223 289 -927 376 -1205 45 -140 98 -311 119 -380 35 -116 211
-679 335 -1075 61 -193 127 -405 181 -580 20 -66 50 -144 66 -172 42 -74 110
-147 171 -182 112 -64 49 -61 1425 -61 882 0 1267 3 1304 11 77 16 149 53 208
106 88 79 70 31 325 878 18 61 40 135 49 165 8 30 41 138 72 240 31 102 64
214 74 250 10 36 39 133 65 215 25 83 54 179 64 215 11 36 40 135 65 220 26
85 65 216 87 290 22 74 44 149 49 165 4 17 24 82 43 145 19 63 51 169 71 235
20 66 48 158 63 205 14 47 32 105 39 130 7 25 22 77 34 115 12 39 29 99 40
135 10 36 35 119 55 185 20 66 40 134 45 150 4 17 24 84 44 150 56 185 82 271
115 380 16 55 50 170 76 255 26 85 56 187 67 225 30 102 51 172 103 345 26 85
59 198 75 250 16 52 49 165 75 250 26 85 56 187 67 225 11 39 24 81 28 95 5
14 20 63 34 110 14 47 42 139 62 205 20 66 40 134 45 150 4 17 12 46 18 65 5
19 21 73 36 120 26 82 98 324 115 385 5 17 25 84 45 150 33 109 104 346 125
420 5 17 25 84 45 150 42 139 75 248 140 465 26 85 58 191 71 235 14 44 26 87
28 95 2 8 25 85 51 170 26 85 51 169 55 185 4 17 38 129 74 250 37 121 74 245
82 275 9 30 36 118 60 195 40 131 85 280 104 350 5 17 25 84 45 150 20 66 52
174 71 240 19 66 41 138 49 160 8 22 42 135 75 250 34 116 77 262 96 325 51
166 51 165 85 280 17 58 46 157 66 220 19 63 44 147 55 185 11 39 37 126 58
195 21 69 50 166 65 215 14 50 40 135 56 190 17 55 43 143 60 195 16 53 29 99
29 103 0 4 -650 7 -1444 7 l-1444 0 -10 -27 c-26 -68 -39 -110 -177 -558 -25
-82 -50 -161 -55 -175 -10 -28 -63 -198 -169 -540 -38 -124 -97 -313 -131
-420 -34 -107 -70 -222 -80 -255 -33 -110 -107 -347 -190 -610 -45 -143 -89
-282 -97 -310 -8 -27 -28 -93 -45 -145 -17 -52 -38 -122 -48 -155 -10 -33 -35
-112 -55 -175 -20 -63 -45 -142 -55 -175 -10 -33 -30 -98 -45 -145 -15 -47
-35 -112 -45 -145 -30 -98 -65 -209 -125 -400 -31 -99 -61 -193 -65 -210 -5
-16 -29 -93 -53 -170 -60 -189 -184 -586 -207 -660 -10 -33 -30 -98 -45 -145
-15 -47 -35 -113 -46 -147 -39 -128 -59 -191 -94 -303 -20 -63 -56 -178 -80
-255 -24 -77 -71 -228 -105 -335 -34 -107 -79 -253 -101 -325 -22 -71 -52
-166 -66 -210 -13 -44 -33 -107 -43 -140 -10 -33 -55 -177 -100 -320 -45 -143
-88 -282 -96 -310 -9 -27 -30 -97 -49 -155 -18 -58 -43 -138 -55 -178 -13 -40
-25 -71 -27 -69 -4 5 -101 325 -299 987 -80 267 -153 512 -164 545 -10 33 -53
177 -95 320 -42 143 -110 370 -151 505 -41 135 -81 268 -89 295 -8 28 -50 169
-94 315 -44 146 -118 396 -166 555 -48 160 -122 407 -165 550 -43 143 -155
519 -250 835 -94 316 -204 685 -245 820 -40 135 -112 376 -160 535 -48 160
-120 400 -160 535 -40 135 -106 353 -145 485 -40 132 -94 316 -121 409 -27 93
-64 199 -81 235 -37 78 -114 158 -186 195 -113 57 -78 56 -1317 56 -721 0
-1164 -4 -1205 -10 -94 -15 -198 -69 -255 -132 -72 -81 -85 -109 -159 -349
-24 -79 -70 -225 -101 -324 -31 -99 -65 -207 -75 -240 -24 -78 -206 -665 -271
-870 -28 -88 -70 -223 -94 -300 -115 -368 -152 -484 -207 -660 -33 -104 -63
-203 -68 -220 -4 -16 -20 -68 -35 -115 -112 -354 -145 -461 -158 -505 -19 -62
-206 -661 -254 -810 -19 -60 -38 -123 -43 -140 -5 -16 -13 -43 -18 -60 -6 -16
-30 -95 -55 -175 -25 -80 -80 -255 -122 -390 -73 -235 -101 -325 -215 -690
-28 -91 -74 -237 -101 -325 -28 -88 -65 -207 -84 -265 -18 -58 -48 -152 -65
-210 -50 -163 -81 -263 -90 -290 -5 -14 -30 -92 -55 -175 -26 -82 -71 -226
-100 -320 -29 -93 -74 -237 -100 -320 -84 -270 -87 -279 -96 -263 -9 16 -89
279 -295 968 -80 267 -153 512 -164 545 -10 33 -53 177 -95 320 -42 143 -110
370 -151 505 -41 135 -81 268 -89 295 -8 28 -50 169 -94 315 -44 146 -118 396
-166 555 -48 160 -122 407 -165 550 -43 143 -155 519 -250 835 -94 316 -204
685 -245 820 -40 135 -112 376 -160 535 -115 385 -214 714 -325 1085 -51 168
-107 357 -125 420 -19 63 -54 180 -78 260 l-43 145 -1538 3 c-1308 2 -1537 0
-1533 -12z"/>
<path d="M8125 12606 c-280 -106 -631 -238 -780 -293 -313 -117 -5549 -2082
-5950 -2233 -148 -56 -353 -133 -455 -170 -529 -197 -697 -263 -742 -291 -62
-40 -120 -107 -155 -178 l-28 -56 0 -1110 0 -1110 26 -55 c34 -72 107 -152
172 -188 29 -16 124 -57 212 -92 88 -34 198 -78 245 -97 47 -19 137 -54 200
-78 63 -24 174 -67 245 -95 72 -28 180 -71 240 -94 61 -24 225 -88 365 -143
140 -55 487 -191 770 -303 283 -111 553 -217 600 -235 47 -18 150 -59 230 -90
80 -31 242 -95 360 -142 118 -47 256 -101 305 -119 50 -19 99 -39 110 -44 20
-9 166 -66 369 -145 61 -23 226 -87 366 -143 933 -367 1912 -751 2005 -787 61
-23 173 -67 250 -98 77 -30 286 -112 465 -182 179 -70 368 -144 420 -165 149
-59 362 -143 510 -200 74 -29 141 -57 148 -63 9 -7 12 264 12 1349 l0 1359
-373 139 c-204 76 -417 156 -472 177 -193 73 -321 121 -410 154 -49 18 -337
126 -640 240 -302 114 -593 223 -645 242 -52 18 -129 47 -170 63 -67 27 -1002
378 -1415 532 -88 32 -194 72 -235 88 -41 16 -221 83 -400 150 -179 67 -327
124 -329 126 -5 4 10 11 214 90 94 36 260 101 370 144 110 44 277 109 370 145
94 37 242 95 330 130 88 35 225 89 305 119 80 31 154 61 165 66 11 5 72 29
135 53 63 24 261 102 440 172 179 70 368 145 420 165 88 34 1217 477 1987 780
183 71 337 130 343 130 7 0 10 410 10 1290 0 710 -1 1290 -2 1289 -2 0 -232
-87 -513 -193z"/>
<path d="M41180 11444 l0 -1359 373 -139 c204 -76 417 -156 472 -177 193 -73
321 -121 410 -154 50 -18 338 -126 640 -240 303 -114 593 -223 645 -242 52
-18 129 -47 170 -63 95 -38 1385 -522 1785 -670 384 -142 580 -219 583 -228 2
-6 -7 -14 -20 -17 -24 -8 -198 -76 -553 -215 -110 -44 -276 -109 -370 -145
-93 -37 -242 -95 -330 -130 -88 -35 -225 -89 -305 -119 -80 -31 -154 -61 -165
-66 -11 -5 -72 -29 -135 -53 -63 -24 -261 -102 -440 -172 -179 -70 -368 -145
-420 -165 -88 -34 -1217 -477 -1987 -780 -183 -71 -337 -130 -343 -130 -7 0
-10 -410 -10 -1290 l0 -1290 68 26 c66 25 1027 386 1337 502 440 164 5607
2104 5840 2192 149 56 353 133 455 170 653 243 712 267 766 308 68 53 118 121
144 196 20 59 20 80 20 1135 l0 1076 -24 58 c-62 149 -127 201 -371 298 -99
39 -218 87 -265 106 -47 19 -137 54 -200 78 -63 24 -173 67 -245 95 -71 28
-179 71 -240 94 -60 24 -225 88 -365 143 -140 55 -487 191 -770 303 -283 111
-553 217 -600 235 -47 18 -150 59 -230 90 -80 31 -242 95 -360 142 -118 47
-255 101 -305 119 -49 19 -99 39 -110 44 -20 9 -166 66 -369 145 -61 23 -226
87 -366 143 -933 367 -1912 751 -2005 787 -60 23 -173 67 -250 98 -77 30 -286
112 -465 182 -179 70 -368 144 -420 165 -149 59 -362 143 -510 200 -74 29
-141 57 -147 63 -10 7 -13 -264 -13 -1349z"/>
</g>
</svg>
